G04*
G04 #@! TF.GenerationSoftware,Altium Limited,Altium Designer,20.1.10 (176)*
G04*
G04 Layer_Color=255*
%FSLAX25Y25*%
%MOIN*%
G70*
G04*
G04 #@! TF.SameCoordinates,0441287F-5BD0-46D5-AAFD-36AB4F102E54*
G04*
G04*
G04 #@! TF.FilePolarity,Positive*
G04*
G01*
G75*
%ADD62C,0.06693*%
%ADD63R,0.06693X0.06693*%
%ADD64O,0.11811X0.08661*%
%ADD65O,0.08661X0.11811*%
%ADD66R,0.09843X0.09843*%
%ADD67C,0.09843*%
%ADD68R,0.06693X0.06693*%
%ADD69C,0.20000*%
%ADD70C,0.07874*%
%ADD71R,0.07874X0.07874*%
%ADD72C,0.08661*%
%ADD73C,0.07480*%
%ADD74R,0.07480X0.07480*%
%ADD75R,0.07874X0.07874*%
D62*
X107000Y186500D02*
D03*
X97000D02*
D03*
X187000Y16500D02*
D03*
X177000D02*
D03*
X303150Y98425D02*
D03*
Y108425D02*
D03*
X9500Y70500D02*
D03*
Y80500D02*
D03*
X150500Y188500D02*
D03*
X140500D02*
D03*
X101000Y16500D02*
D03*
X91000D02*
D03*
D63*
X87000Y186500D02*
D03*
X197000Y16500D02*
D03*
X160500Y188500D02*
D03*
X111000Y16500D02*
D03*
D64*
X15500Y134500D02*
D03*
Y119500D02*
D03*
Y149500D02*
D03*
D65*
X145000Y17000D02*
D03*
X130000D02*
D03*
X160000D02*
D03*
X252000Y180000D02*
D03*
X267000D02*
D03*
X237000D02*
D03*
D66*
X56500Y86421D02*
D03*
D67*
Y56500D02*
D03*
D68*
X303150Y88425D02*
D03*
X9500Y60500D02*
D03*
D69*
X19685Y19685D02*
D03*
X295276Y177165D02*
D03*
X19685Y177165D02*
D03*
X295276Y19685D02*
D03*
D70*
X124500Y95500D02*
D03*
X134500D02*
D03*
X169000Y86500D02*
D03*
Y76500D02*
D03*
D71*
X114500Y95500D02*
D03*
D72*
X214000Y95685D02*
D03*
Y56315D02*
D03*
D73*
X267500Y50000D02*
D03*
D74*
Y71000D02*
D03*
D75*
X169000Y96500D02*
D03*
M02*
