G04*
G04 #@! TF.GenerationSoftware,Altium Limited,Altium Designer,20.1.10 (176)*
G04*
G04 Layer_Color=128*
%FSLAX25Y25*%
%MOIN*%
G70*
G04*
G04 #@! TF.SameCoordinates,0441287F-5BD0-46D5-AAFD-36AB4F102E54*
G04*
G04*
G04 #@! TF.FilePolarity,Positive*
G04*
G01*
G75*
%ADD81C,0.00200*%
D81*
X105228Y186500D02*
X108772D01*
X107000Y184728D02*
Y188272D01*
X95228Y186500D02*
X98772D01*
X97000Y184728D02*
Y188272D01*
X85228Y186500D02*
X88772D01*
X87000Y184728D02*
Y188272D01*
X13532Y134500D02*
X17469D01*
X15500Y132531D02*
Y136469D01*
X13532Y119500D02*
X17469D01*
X15500Y117532D02*
Y121468D01*
X13532Y149500D02*
X17469D01*
X15500Y147531D02*
Y151469D01*
X195228Y16500D02*
X198772D01*
X197000Y14728D02*
Y18272D01*
X185228Y16500D02*
X188772D01*
X187000Y14728D02*
Y18272D01*
X175228Y16500D02*
X178772D01*
X177000Y14728D02*
Y18272D01*
X143032Y17000D02*
X146968D01*
X145000Y15032D02*
Y18969D01*
X128032Y17000D02*
X131968D01*
X130000Y15032D02*
Y18969D01*
X158031Y17000D02*
X161969D01*
X160000Y15032D02*
Y18969D01*
X53744Y86421D02*
X59256D01*
X56500Y83665D02*
Y89177D01*
X53744Y56500D02*
X59256D01*
X56500Y53744D02*
Y59256D01*
X301378Y88425D02*
X304921D01*
X303150Y86654D02*
Y90197D01*
X301378Y98425D02*
X304921D01*
X303150Y96653D02*
Y100197D01*
X301378Y108425D02*
X304921D01*
X303150Y106653D02*
Y110197D01*
X7728Y60500D02*
X11272D01*
X9500Y58728D02*
Y62272D01*
X7728Y70500D02*
X11272D01*
X9500Y68728D02*
Y72272D01*
X7728Y80500D02*
X11272D01*
X9500Y78728D02*
Y82272D01*
X13435Y19685D02*
X25935D01*
X19685Y13435D02*
Y25935D01*
X289026Y177165D02*
X301526D01*
X295276Y170915D02*
Y183415D01*
X13435Y177165D02*
X25935D01*
X19685Y170915D02*
Y183415D01*
X289026Y19685D02*
X301526D01*
X295276Y13435D02*
Y25935D01*
X122335Y95500D02*
X126665D01*
X124500Y93335D02*
Y97665D01*
X132335Y95500D02*
X136665D01*
X134500Y93335D02*
Y97665D01*
X112335Y95500D02*
X116665D01*
X114500Y93335D02*
Y97665D01*
X211638Y95685D02*
X216362D01*
X214000Y93323D02*
Y98047D01*
X211638Y56315D02*
X216362D01*
X214000Y53953D02*
Y58677D01*
X265728Y50000D02*
X269272D01*
X267500Y48228D02*
Y51772D01*
X265728Y71000D02*
X269272D01*
X267500Y69228D02*
Y72772D01*
X166835Y86500D02*
X171165D01*
X169000Y84335D02*
Y88665D01*
X166835Y76500D02*
X171165D01*
X169000Y74335D02*
Y78665D01*
X166835Y96500D02*
X171165D01*
X169000Y94335D02*
Y98665D01*
X250031Y180000D02*
X253969D01*
X252000Y178032D02*
Y181968D01*
X265032Y180000D02*
X268969D01*
X267000Y178032D02*
Y181968D01*
X235032Y180000D02*
X238968D01*
X237000Y178032D02*
Y181968D01*
X158728Y188500D02*
X162272D01*
X160500Y186728D02*
Y190272D01*
X148728Y188500D02*
X152272D01*
X150500Y186728D02*
Y190272D01*
X138728Y188500D02*
X142272D01*
X140500Y186728D02*
Y190272D01*
X109228Y16500D02*
X112772D01*
X111000Y14728D02*
Y18272D01*
X99228Y16500D02*
X102772D01*
X101000Y14728D02*
Y18272D01*
X89228Y16500D02*
X92772D01*
X91000Y14728D02*
Y18272D01*
X133800Y103500D02*
X135200D01*
X134500Y102800D02*
Y104200D01*
X151800Y138500D02*
X153200D01*
X152500Y137800D02*
Y139200D01*
X88800Y141000D02*
X90200D01*
X89500Y140300D02*
Y141700D01*
X85300Y117500D02*
X86700D01*
X86000Y116800D02*
Y118200D01*
X73300Y118000D02*
X74700D01*
X74000Y117300D02*
Y118700D01*
X66800Y117500D02*
X68200D01*
X67500Y116800D02*
Y118200D01*
X85800Y125500D02*
X87200D01*
X86500Y124800D02*
Y126200D01*
X74800Y126000D02*
X76200D01*
X75500Y125300D02*
Y126700D01*
X67300Y126500D02*
X68700D01*
X68000Y125800D02*
Y127200D01*
X145800Y181000D02*
X147200D01*
X146500Y180300D02*
Y181700D01*
X158800Y181000D02*
X160200D01*
X159500Y180300D02*
Y181700D01*
X152300Y181000D02*
X153700D01*
X153000Y180300D02*
Y181700D01*
X201800Y132000D02*
X203200D01*
X202500Y131300D02*
Y132700D01*
X129800Y176500D02*
X131200D01*
X130500Y175800D02*
Y177200D01*
X97800Y157500D02*
X99200D01*
X98500Y156800D02*
Y158200D01*
X46300Y149500D02*
X47700D01*
X47000Y148800D02*
Y150200D01*
X66300Y154500D02*
X67700D01*
X67000Y153800D02*
Y155200D01*
X54800Y147000D02*
X56200D01*
X55500Y146300D02*
Y147700D01*
X53800Y153000D02*
X55200D01*
X54500Y152300D02*
Y153700D01*
X59800Y153500D02*
X61200D01*
X60500Y152800D02*
Y154200D01*
M02*
