M48
;Layer_Color=9474304
;FILE_FORMAT=2:5
INCH,TZ
;TYPE=PLATED
T1F00S00C0.01400
T2F00S00C0.03543
T3F00S00C0.03937
T4F00S00C0.04331
T5F00S00C0.04724
T6F00S00C0.05512
T7F00S00C0.12500
%
T01
X134500Y103500
X86000Y117500
X74000Y118000
X67500Y117500
X68000Y126500
X75500Y126000
X67000Y154500
X60500Y153500
X54500Y153000
X55500Y147000
X47000Y149500
X89500Y141000
X86500Y125500
X98500Y157500
X130500Y176500
X146500Y181000
X153000
X159500
X152500Y138500
X202500Y132000
T02
X267500Y50000
Y71000
X303150Y88425
Y98425
Y108425
X197000Y16500
X187000
X177000
X111000
X101000
X91000
X9500Y60500
Y70500
Y80500
X87000Y186500
X97000
X107000
X140500Y188500
X150500
X160500
T03
X130000Y17000
X145000
X160000
X15500Y119500
Y134500
Y149500
X237000Y180000
X252000
X267000
T04
X114500Y95500
X124500
X134500
X169000Y96500
Y86500
Y76500
T05
X214000Y56315
Y95685
T06
X56500Y56500
Y86421
T07
X295276Y19685
X19685
Y177165
X295276Y177165
M30
