G04*
G04 #@! TF.GenerationSoftware,Altium Limited,Altium Designer,20.1.10 (176)*
G04*
G04 Layer_Physical_Order=2*
G04 Layer_Color=16711680*
%FSLAX25Y25*%
%MOIN*%
G70*
G04*
G04 #@! TF.SameCoordinates,0441287F-5BD0-46D5-AAFD-36AB4F102E54*
G04*
G04*
G04 #@! TF.FilePolarity,Positive*
G04*
G01*
G75*
%ADD59C,0.03000*%
%ADD61C,0.02000*%
%ADD62C,0.06693*%
%ADD63R,0.06693X0.06693*%
%ADD64O,0.11811X0.08661*%
%ADD65O,0.08661X0.11811*%
%ADD66R,0.09843X0.09843*%
%ADD67C,0.09843*%
%ADD68R,0.06693X0.06693*%
%ADD69C,0.20000*%
%ADD70C,0.07874*%
%ADD71R,0.07874X0.07874*%
%ADD72C,0.08661*%
%ADD73C,0.07480*%
%ADD74R,0.07480X0.07480*%
%ADD75R,0.07874X0.07874*%
%ADD76C,0.03000*%
G36*
X314437Y-63D02*
X-563D01*
Y196437D01*
X314437D01*
Y-63D01*
D02*
G37*
%LPC*%
G36*
X91347Y190847D02*
X82653D01*
Y182153D01*
X91347D01*
Y190847D01*
D02*
G37*
G36*
X107000Y190884D02*
X105865Y190735D01*
X104808Y190297D01*
X103900Y189600D01*
X103203Y188692D01*
X102765Y187635D01*
X102616Y186500D01*
X102765Y185365D01*
X103203Y184308D01*
X103900Y183400D01*
X104808Y182703D01*
X105865Y182265D01*
X107000Y182116D01*
X108135Y182265D01*
X109192Y182703D01*
X110100Y183400D01*
X110797Y184308D01*
X111235Y185365D01*
X111384Y186500D01*
X111235Y187635D01*
X110797Y188692D01*
X110100Y189600D01*
X109192Y190297D01*
X108135Y190735D01*
X107000Y190884D01*
D02*
G37*
G36*
X97000D02*
X95865Y190735D01*
X94808Y190297D01*
X93900Y189600D01*
X93203Y188692D01*
X92765Y187635D01*
X92616Y186500D01*
X92765Y185365D01*
X93203Y184308D01*
X93900Y183400D01*
X94808Y182703D01*
X95865Y182265D01*
X97000Y182116D01*
X98135Y182265D01*
X99192Y182703D01*
X100100Y183400D01*
X100797Y184308D01*
X101235Y185365D01*
X101384Y186500D01*
X101235Y187635D01*
X100797Y188692D01*
X100100Y189600D01*
X99192Y190297D01*
X98135Y190735D01*
X97000Y190884D01*
D02*
G37*
G36*
X267000Y186951D02*
X265608Y186768D01*
X264312Y186231D01*
X263198Y185377D01*
X262344Y184263D01*
X261807Y182966D01*
X261623Y181575D01*
Y178425D01*
X261807Y177034D01*
X262344Y175737D01*
X263198Y174623D01*
X264312Y173769D01*
X265608Y173232D01*
X267000Y173048D01*
X268392Y173232D01*
X269688Y173769D01*
X270802Y174623D01*
X271656Y175737D01*
X272194Y177034D01*
X272377Y178425D01*
Y181575D01*
X272194Y182966D01*
X271656Y184263D01*
X270802Y185377D01*
X269688Y186231D01*
X268392Y186768D01*
X267000Y186951D01*
D02*
G37*
G36*
X252000D02*
X250608Y186768D01*
X249312Y186231D01*
X248198Y185377D01*
X247344Y184263D01*
X246807Y182966D01*
X246623Y181575D01*
Y178425D01*
X246807Y177034D01*
X247344Y175737D01*
X248198Y174623D01*
X249312Y173769D01*
X250608Y173232D01*
X252000Y173048D01*
X253392Y173232D01*
X254688Y173769D01*
X255802Y174623D01*
X256656Y175737D01*
X257193Y177034D01*
X257377Y178425D01*
Y181575D01*
X257193Y182966D01*
X256656Y184263D01*
X255802Y185377D01*
X254688Y186231D01*
X253392Y186768D01*
X252000Y186951D01*
D02*
G37*
G36*
X237000D02*
X235608Y186768D01*
X234312Y186231D01*
X233198Y185377D01*
X232344Y184263D01*
X231806Y182966D01*
X231623Y181575D01*
Y178425D01*
X231806Y177034D01*
X232344Y175737D01*
X233198Y174623D01*
X234312Y173769D01*
X235608Y173232D01*
X237000Y173048D01*
X238392Y173232D01*
X239688Y173769D01*
X240802Y174623D01*
X241656Y175737D01*
X242194Y177034D01*
X242377Y178425D01*
Y181575D01*
X242194Y182966D01*
X241656Y184263D01*
X240802Y185377D01*
X239688Y186231D01*
X238392Y186768D01*
X237000Y186951D01*
D02*
G37*
G36*
X295276Y188199D02*
X293549Y188064D01*
X291866Y187659D01*
X290266Y186997D01*
X288790Y186092D01*
X287473Y184968D01*
X286349Y183651D01*
X285444Y182175D01*
X284782Y180575D01*
X284377Y178892D01*
X284242Y177165D01*
X284377Y175439D01*
X284782Y173756D01*
X285444Y172156D01*
X286349Y170680D01*
X287473Y169363D01*
X288790Y168239D01*
X290266Y167334D01*
X291866Y166671D01*
X293549Y166267D01*
X295276Y166131D01*
X297002Y166267D01*
X298685Y166671D01*
X300285Y167334D01*
X301761Y168239D01*
X303078Y169363D01*
X304202Y170680D01*
X305107Y172156D01*
X305770Y173756D01*
X306174Y175439D01*
X306310Y177165D01*
X306174Y178892D01*
X305770Y180575D01*
X305107Y182175D01*
X304202Y183651D01*
X303078Y184968D01*
X301761Y186092D01*
X300285Y186997D01*
X298685Y187659D01*
X297002Y188064D01*
X295276Y188199D01*
D02*
G37*
G36*
X19685Y188199D02*
X17959Y188064D01*
X16275Y187659D01*
X14676Y186997D01*
X13199Y186092D01*
X11883Y184968D01*
X10758Y183651D01*
X9854Y182175D01*
X9191Y180575D01*
X8787Y178892D01*
X8651Y177165D01*
X8787Y175439D01*
X9191Y173756D01*
X9854Y172156D01*
X10758Y170680D01*
X11883Y169363D01*
X13199Y168239D01*
X14676Y167334D01*
X16275Y166671D01*
X17959Y166267D01*
X19685Y166131D01*
X21411Y166267D01*
X23095Y166671D01*
X24694Y167334D01*
X26171Y168239D01*
X27487Y169363D01*
X28612Y170680D01*
X29516Y172156D01*
X30179Y173756D01*
X30583Y175439D01*
X30719Y177165D01*
X30583Y178892D01*
X30179Y180575D01*
X29516Y182175D01*
X28612Y183651D01*
X27487Y184968D01*
X26171Y186092D01*
X24694Y186997D01*
X23095Y187659D01*
X21411Y188064D01*
X19685Y188199D01*
D02*
G37*
G36*
X17075Y154877D02*
X13925D01*
X12534Y154693D01*
X11237Y154156D01*
X10123Y153302D01*
X9269Y152188D01*
X8732Y150892D01*
X8548Y149500D01*
X8732Y148108D01*
X9269Y146812D01*
X10123Y145698D01*
X11237Y144844D01*
X12534Y144307D01*
X13925Y144123D01*
X17075D01*
X18466Y144307D01*
X19763Y144844D01*
X20877Y145698D01*
X21731Y146812D01*
X22268Y148108D01*
X22452Y149500D01*
X22268Y150892D01*
X21731Y152188D01*
X20877Y153302D01*
X19763Y154156D01*
X18466Y154693D01*
X17075Y154877D01*
D02*
G37*
G36*
X130500Y179049D02*
X117500D01*
X116525Y178855D01*
X115698Y178302D01*
X96698Y159302D01*
X94444Y157049D01*
X67000D01*
X66025Y156855D01*
X65198Y156302D01*
X44500Y155500D01*
Y149746D01*
X44451Y149500D01*
X44500Y149254D01*
Y148395D01*
X45895Y147000D01*
X46754D01*
X47000Y146951D01*
X47246Y147000D01*
X52951D01*
Y147436D01*
X53053Y147511D01*
X52951Y147000D01*
X53145Y146025D01*
X53698Y145198D01*
X54524Y144645D01*
X55500Y144451D01*
X186444D01*
X200698Y130198D01*
X201524Y129645D01*
X202500Y129451D01*
X203475Y129645D01*
X204302Y130198D01*
X204855Y131025D01*
X205049Y132000D01*
X204855Y132975D01*
X204302Y133802D01*
X189302Y148802D01*
X188476Y149355D01*
X187500Y149549D01*
X111500D01*
Y165500D01*
X98698Y152698D01*
X97956D01*
X97764Y153159D01*
X100302Y155698D01*
X118556Y173951D01*
X130500D01*
X131475Y174145D01*
X132302Y174698D01*
X132855Y175524D01*
X133049Y176500D01*
X132855Y177476D01*
X132302Y178302D01*
X131475Y178855D01*
X130500Y179049D01*
D02*
G37*
G36*
X17075Y139877D02*
X13925D01*
X12534Y139693D01*
X11237Y139156D01*
X10123Y138302D01*
X9269Y137188D01*
X8732Y135892D01*
X8548Y134500D01*
X8732Y133108D01*
X9269Y131812D01*
X10123Y130698D01*
X11237Y129844D01*
X12534Y129306D01*
X13925Y129123D01*
X17075D01*
X18466Y129306D01*
X19763Y129844D01*
X20877Y130698D01*
X21731Y131812D01*
X22268Y133108D01*
X22452Y134500D01*
X22268Y135892D01*
X21731Y137188D01*
X20877Y138302D01*
X19763Y139156D01*
X18466Y139693D01*
X17075Y139877D01*
D02*
G37*
G36*
Y124877D02*
X13925D01*
X12534Y124694D01*
X11237Y124156D01*
X10123Y123302D01*
X9269Y122188D01*
X8732Y120892D01*
X8548Y119500D01*
X8732Y118108D01*
X9269Y116812D01*
X10123Y115698D01*
X11237Y114844D01*
X12534Y114306D01*
X13925Y114123D01*
X17075D01*
X18466Y114306D01*
X19763Y114844D01*
X20877Y115698D01*
X21731Y116812D01*
X22268Y118108D01*
X22452Y119500D01*
X22268Y120892D01*
X21731Y122188D01*
X20877Y123302D01*
X19763Y124156D01*
X18466Y124694D01*
X17075Y124877D01*
D02*
G37*
G36*
X303150Y112809D02*
X302015Y112660D01*
X300958Y112222D01*
X300050Y111525D01*
X299353Y110617D01*
X298915Y109560D01*
X298766Y108425D01*
X298915Y107291D01*
X299353Y106233D01*
X300050Y105325D01*
X300958Y104629D01*
X302015Y104191D01*
X303150Y104041D01*
X304284Y104191D01*
X305342Y104629D01*
X306249Y105325D01*
X306946Y106233D01*
X307384Y107291D01*
X307534Y108425D01*
X307384Y109560D01*
X306946Y110617D01*
X306249Y111525D01*
X305342Y112222D01*
X304284Y112660D01*
X303150Y112809D01*
D02*
G37*
G36*
X152500Y141049D02*
X151524Y140855D01*
X150698Y140302D01*
X150145Y139476D01*
X150034Y138918D01*
X133058Y121942D01*
X132616Y121280D01*
X132461Y120500D01*
Y104948D01*
X132145Y104475D01*
X131951Y103500D01*
X132145Y102524D01*
X132698Y101698D01*
X133525Y101145D01*
X134126Y101025D01*
X134400Y100971D01*
X134384Y100464D01*
X134125Y100430D01*
X133211Y100310D01*
X132010Y99813D01*
X130979Y99021D01*
X130187Y97990D01*
X129771Y96983D01*
X129229D01*
X128813Y97990D01*
X128021Y99021D01*
X126990Y99813D01*
X125789Y100310D01*
X124500Y100480D01*
X123211Y100310D01*
X122010Y99813D01*
X120979Y99021D01*
X120187Y97990D01*
X119937Y97385D01*
X119437Y97484D01*
Y100437D01*
X109563D01*
Y90563D01*
X119437D01*
Y93515D01*
X119937Y93615D01*
X120187Y93010D01*
X120979Y91979D01*
X122010Y91188D01*
X123211Y90690D01*
X124500Y90520D01*
X125789Y90690D01*
X126990Y91188D01*
X128021Y91979D01*
X128813Y93010D01*
X129229Y94017D01*
X129771D01*
X130187Y93010D01*
X130979Y91979D01*
X132010Y91188D01*
X133211Y90690D01*
X134500Y90520D01*
X135789Y90690D01*
X136990Y91188D01*
X138021Y91979D01*
X138812Y93010D01*
X139310Y94211D01*
X139480Y95500D01*
X139310Y96789D01*
X138812Y97990D01*
X138021Y99021D01*
X136990Y99813D01*
X135789Y100310D01*
X134876Y100430D01*
X134616Y100464D01*
X134600Y100971D01*
X134873Y101025D01*
X135476Y101145D01*
X136302Y101698D01*
X136855Y102524D01*
X137049Y103500D01*
X136855Y104475D01*
X136539Y104948D01*
Y119655D01*
X152918Y136034D01*
X153475Y136145D01*
X154302Y136698D01*
X154855Y137524D01*
X155049Y138500D01*
X154855Y139476D01*
X154302Y140302D01*
X153475Y140855D01*
X152500Y141049D01*
D02*
G37*
G36*
X303150Y102809D02*
X302015Y102660D01*
X300958Y102222D01*
X300050Y101525D01*
X299353Y100617D01*
X298915Y99560D01*
X298766Y98425D01*
X298915Y97290D01*
X299353Y96233D01*
X300050Y95325D01*
X300958Y94629D01*
X302015Y94191D01*
X303150Y94041D01*
X304284Y94191D01*
X305342Y94629D01*
X306249Y95325D01*
X306946Y96233D01*
X307384Y97290D01*
X307534Y98425D01*
X307384Y99560D01*
X306946Y100617D01*
X306249Y101525D01*
X305342Y102222D01*
X304284Y102660D01*
X303150Y102809D01*
D02*
G37*
G36*
X214000Y101062D02*
X212608Y100879D01*
X211312Y100341D01*
X210198Y99487D01*
X209344Y98373D01*
X208806Y97077D01*
X208623Y95685D01*
X208806Y94293D01*
X209344Y92997D01*
X210198Y91883D01*
X211312Y91029D01*
X212608Y90491D01*
X214000Y90308D01*
X215392Y90491D01*
X216688Y91029D01*
X217802Y91883D01*
X218656Y92997D01*
X219194Y94293D01*
X219377Y95685D01*
X219194Y97077D01*
X218656Y98373D01*
X217802Y99487D01*
X216688Y100341D01*
X215392Y100879D01*
X214000Y101062D01*
D02*
G37*
G36*
X307496Y92772D02*
X298803D01*
Y84079D01*
X307496D01*
Y92772D01*
D02*
G37*
G36*
X173937Y101437D02*
X164063D01*
Y91563D01*
X167016D01*
X167115Y91063D01*
X166510Y90812D01*
X165479Y90021D01*
X164688Y88990D01*
X164190Y87789D01*
X164020Y86500D01*
X164190Y85211D01*
X164688Y84010D01*
X165479Y82979D01*
X166510Y82187D01*
X167711Y81690D01*
X169000Y81520D01*
X170289Y81690D01*
X171490Y82187D01*
X172521Y82979D01*
X173312Y84010D01*
X173810Y85211D01*
X173980Y86500D01*
X173810Y87789D01*
X173312Y88990D01*
X172521Y90021D01*
X171490Y90812D01*
X170885Y91063D01*
X170984Y91563D01*
X173937D01*
Y101437D01*
D02*
G37*
G36*
X62421Y92343D02*
X50579D01*
Y80500D01*
X62421D01*
Y92343D01*
D02*
G37*
G36*
X9500Y84884D02*
X8365Y84735D01*
X7308Y84297D01*
X6400Y83600D01*
X5703Y82692D01*
X5265Y81635D01*
X5116Y80500D01*
X5265Y79365D01*
X5703Y78308D01*
X6400Y77400D01*
X7308Y76703D01*
X8365Y76265D01*
X9500Y76116D01*
X10635Y76265D01*
X11692Y76703D01*
X12600Y77400D01*
X13297Y78308D01*
X13735Y79365D01*
X13884Y80500D01*
X13735Y81635D01*
X13297Y82692D01*
X12600Y83600D01*
X11692Y84297D01*
X10635Y84735D01*
X9500Y84884D01*
D02*
G37*
G36*
X272240Y75740D02*
X262760D01*
Y66260D01*
X272240D01*
Y75740D01*
D02*
G37*
G36*
X9500Y74884D02*
X8365Y74735D01*
X7308Y74297D01*
X6400Y73600D01*
X5703Y72692D01*
X5265Y71635D01*
X5116Y70500D01*
X5265Y69365D01*
X5703Y68308D01*
X6400Y67400D01*
X7308Y66703D01*
X8365Y66265D01*
X9500Y66116D01*
X10635Y66265D01*
X11692Y66703D01*
X12600Y67400D01*
X13297Y68308D01*
X13735Y69365D01*
X13884Y70500D01*
X13735Y71635D01*
X13297Y72692D01*
X12600Y73600D01*
X11692Y74297D01*
X10635Y74735D01*
X9500Y74884D01*
D02*
G37*
G36*
X13846Y64846D02*
X5153D01*
Y56154D01*
X13846D01*
Y64846D01*
D02*
G37*
G36*
X214000Y61692D02*
X212608Y61509D01*
X211312Y60971D01*
X210198Y60117D01*
X209344Y59003D01*
X208806Y57707D01*
X208623Y56315D01*
X208806Y54923D01*
X209344Y53627D01*
X210198Y52513D01*
X211312Y51659D01*
X212608Y51121D01*
X214000Y50938D01*
X215392Y51121D01*
X216688Y51659D01*
X217802Y52513D01*
X218656Y53627D01*
X219194Y54923D01*
X219377Y56315D01*
X219194Y57707D01*
X218656Y59003D01*
X217802Y60117D01*
X216688Y60971D01*
X215392Y61509D01*
X214000Y61692D01*
D02*
G37*
G36*
X295276Y30719D02*
X293549Y30583D01*
X291866Y30179D01*
X290266Y29516D01*
X288790Y28612D01*
X287473Y27487D01*
X286349Y26171D01*
X285444Y24694D01*
X284782Y23095D01*
X284378Y21411D01*
X284242Y19685D01*
X284378Y17959D01*
X284782Y16275D01*
X285444Y14676D01*
X286349Y13199D01*
X287473Y11883D01*
X288790Y10758D01*
X290266Y9854D01*
X291866Y9191D01*
X293549Y8787D01*
X295276Y8651D01*
X297002Y8787D01*
X298685Y9191D01*
X300285Y9854D01*
X301761Y10758D01*
X303078Y11883D01*
X304202Y13199D01*
X305107Y14676D01*
X305770Y16275D01*
X306174Y17959D01*
X306310Y19685D01*
X306174Y21411D01*
X305770Y23095D01*
X305107Y24694D01*
X304202Y26171D01*
X303078Y27487D01*
X301761Y28612D01*
X300285Y29516D01*
X298685Y30179D01*
X297002Y30583D01*
X295276Y30719D01*
D02*
G37*
G36*
X19685D02*
X17959Y30583D01*
X16275Y30179D01*
X14676Y29516D01*
X13199Y28612D01*
X11883Y27487D01*
X10758Y26171D01*
X9854Y24694D01*
X9191Y23095D01*
X8787Y21411D01*
X8651Y19685D01*
X8787Y17959D01*
X9191Y16275D01*
X9854Y14676D01*
X10758Y13199D01*
X11883Y11883D01*
X13199Y10758D01*
X14676Y9854D01*
X16275Y9191D01*
X17959Y8787D01*
X19685Y8651D01*
X21411Y8787D01*
X23095Y9191D01*
X24694Y9854D01*
X26171Y10758D01*
X27487Y11883D01*
X28612Y13199D01*
X29516Y14676D01*
X30179Y16275D01*
X30583Y17959D01*
X30719Y19685D01*
X30583Y21411D01*
X30179Y23095D01*
X29516Y24694D01*
X28612Y26171D01*
X27487Y27487D01*
X26171Y28612D01*
X24694Y29516D01*
X23095Y30179D01*
X21411Y30583D01*
X19685Y30719D01*
D02*
G37*
%LPD*%
D59*
X55500Y147000D02*
X187500D01*
X202500Y132000D01*
X98500Y157500D02*
X117500Y176500D01*
X130500D01*
X67000Y154500D02*
X95500D01*
X98500Y157500D01*
D61*
X134500Y103500D02*
Y120500D01*
X152500Y138500D01*
D62*
X107000Y186500D02*
D03*
X97000D02*
D03*
X187000Y16500D02*
D03*
X177000D02*
D03*
X303150Y98425D02*
D03*
Y108425D02*
D03*
X9500Y70500D02*
D03*
Y80500D02*
D03*
X150500Y188500D02*
D03*
X140500D02*
D03*
X101000Y16500D02*
D03*
X91000D02*
D03*
D63*
X87000Y186500D02*
D03*
X197000Y16500D02*
D03*
X160500Y188500D02*
D03*
X111000Y16500D02*
D03*
D64*
X15500Y134500D02*
D03*
Y119500D02*
D03*
Y149500D02*
D03*
D65*
X145000Y17000D02*
D03*
X130000D02*
D03*
X160000D02*
D03*
X252000Y180000D02*
D03*
X267000D02*
D03*
X237000D02*
D03*
D66*
X56500Y86421D02*
D03*
D67*
Y56500D02*
D03*
D68*
X303150Y88425D02*
D03*
X9500Y60500D02*
D03*
D69*
X19685Y19685D02*
D03*
X295276Y177165D02*
D03*
X19685Y177165D02*
D03*
X295276Y19685D02*
D03*
D70*
X124500Y95500D02*
D03*
X134500D02*
D03*
X169000Y86500D02*
D03*
Y76500D02*
D03*
D71*
X114500Y95500D02*
D03*
D72*
X214000Y95685D02*
D03*
Y56315D02*
D03*
D73*
X267500Y50000D02*
D03*
D74*
Y71000D02*
D03*
D75*
X169000Y96500D02*
D03*
D76*
X134500Y103500D02*
D03*
X152500Y138500D02*
D03*
X89500Y141000D02*
D03*
X86000Y117500D02*
D03*
X74000Y118000D02*
D03*
X67500Y117500D02*
D03*
X86500Y125500D02*
D03*
X75500Y126000D02*
D03*
X68000Y126500D02*
D03*
X146500Y181000D02*
D03*
X159500D02*
D03*
X153000D02*
D03*
X202500Y132000D02*
D03*
X130500Y176500D02*
D03*
X98500Y157500D02*
D03*
X47000Y149500D02*
D03*
X67000Y154500D02*
D03*
X55500Y147000D02*
D03*
X54500Y153000D02*
D03*
X60500Y153500D02*
D03*
M02*
