G04*
G04 #@! TF.GenerationSoftware,Altium Limited,Altium Designer,20.1.10 (176)*
G04*
G04 Layer_Color=65535*
%FSLAX25Y25*%
%MOIN*%
G70*
G04*
G04 #@! TF.SameCoordinates,0441287F-5BD0-46D5-AAFD-36AB4F102E54*
G04*
G04*
G04 #@! TF.FilePolarity,Positive*
G04*
G01*
G75*
%ADD10C,0.01000*%
%ADD11C,0.03937*%
%ADD12C,0.01500*%
%ADD13C,0.00787*%
%ADD14C,0.02900*%
%ADD15C,0.01968*%
%ADD16C,0.00800*%
%ADD17C,0.00600*%
D10*
X126748Y58000D02*
G03*
X126748Y58000I-15748J0D01*
G01*
X35433Y19685D02*
G03*
X35433Y19685I-15748J0D01*
G01*
X311024Y177165D02*
G03*
X311024Y177165I-15748J0D01*
G01*
X35433Y177165D02*
G03*
X35433Y177165I-15748J0D01*
G01*
X311024Y19685D02*
G03*
X311024Y19685I-15748J0D01*
G01*
X195611Y58204D02*
G03*
X232936Y58786I18389J17796D01*
G01*
X232389Y93796D02*
G03*
X195064Y93214I-18389J-17796D01*
G01*
X241559Y76000D02*
G03*
X241559Y76000I-27559J0D01*
G01*
X88500Y158000D02*
G03*
X94500Y158000I3000J0D01*
G01*
X109800Y125200D02*
Y128800D01*
Y125200D02*
X111500Y123500D01*
X116750D01*
X111500Y130500D02*
X116750D01*
X109800Y128800D02*
X111500Y130500D01*
X119440Y123830D02*
Y130310D01*
X131750Y123500D02*
Y130500D01*
X125250D02*
X131750D01*
X125250Y123500D02*
X131750D01*
X119440Y127150D02*
X122640Y123950D01*
Y130120D01*
X119600Y127080D02*
X122640Y130120D01*
X143300Y119700D02*
Y123300D01*
Y119700D02*
X145000Y118000D01*
X150250D01*
X145000Y125000D02*
X150250D01*
X143300Y123300D02*
X145000Y125000D01*
X152940Y118330D02*
Y124810D01*
X165250Y118000D02*
Y125000D01*
X158750D02*
X165250D01*
X158750Y118000D02*
X165250D01*
X152940Y121650D02*
X156140Y118450D01*
Y124620D01*
X153100Y121580D02*
X156140Y124620D01*
X120200Y163200D02*
Y166800D01*
X118500Y168500D02*
X120200Y166800D01*
X113250Y168500D02*
X118500D01*
X113250Y161500D02*
X118500D01*
X120200Y163200D01*
X110560Y161690D02*
Y168170D01*
X98250Y161500D02*
Y168500D01*
Y161500D02*
X104750D01*
X98250Y168500D02*
X104750D01*
X107360Y168050D02*
X110560Y164850D01*
X107360Y161880D02*
Y168050D01*
Y161880D02*
X110400Y164920D01*
X23000Y138250D02*
X31400D01*
X23000Y130750D02*
Y138250D01*
Y130750D02*
X31400D01*
X23000Y123250D02*
X31400D01*
X23000Y115750D02*
Y123250D01*
Y115750D02*
X31400D01*
X7500Y110000D02*
Y157100D01*
X1200Y110000D02*
X31400D01*
Y157100D01*
X1200D02*
X31400D01*
X1200Y110000D02*
Y157100D01*
X23000Y145750D02*
X31400D01*
X23000D02*
Y153250D01*
X31400D01*
X225100Y17354D02*
X233900D01*
X225100Y36843D02*
X233900D01*
X225100Y17354D02*
Y24500D01*
Y29500D02*
Y36646D01*
X233900Y29500D02*
Y36646D01*
Y17354D02*
Y24500D01*
X148750Y1100D02*
Y9500D01*
X141250D02*
X148750D01*
X141250Y1100D02*
Y9500D01*
X133750Y1100D02*
Y9500D01*
X126250D02*
X133750D01*
X126250Y1100D02*
Y9500D01*
X120500Y25000D02*
X167600D01*
X120500Y1100D02*
Y31300D01*
Y1100D02*
X167600D01*
Y31300D01*
X120500D02*
X167600D01*
X156250Y1100D02*
Y9500D01*
X163750D01*
Y1100D02*
Y9500D01*
X104500Y92000D02*
Y106600D01*
X145000D01*
X104500Y92000D02*
X107300Y89200D01*
X141900D01*
X145000Y92300D01*
Y106600D01*
X105100Y103000D02*
X144700D01*
X286900Y103350D02*
Y125650D01*
X278100Y103350D02*
Y125650D01*
X286900D01*
X278100Y103350D02*
X286900D01*
X132508Y42008D02*
Y61890D01*
X138610Y67992D01*
X152784D01*
X158492Y42008D02*
Y62283D01*
X132508Y42008D02*
X158492D01*
X152784Y67992D02*
X158492Y62283D01*
X165500Y106500D02*
X180100D01*
Y66000D02*
Y106500D01*
X162700Y103700D02*
X165500Y106500D01*
X162700Y69100D02*
Y103700D01*
Y69100D02*
X165800Y66000D01*
X180100D01*
X176500Y66300D02*
Y105900D01*
X271650Y103350D02*
Y125650D01*
X262850Y103350D02*
Y125650D01*
X271650D01*
X262850Y103350D02*
X271650D01*
X247600D02*
Y125650D01*
X256400Y103350D02*
Y125650D01*
X247600Y103350D02*
X256400D01*
X247600Y125650D02*
X256400D01*
X248250Y187500D02*
Y195900D01*
Y187500D02*
X255750D01*
Y195900D01*
X263250Y187500D02*
Y195900D01*
Y187500D02*
X270750D01*
Y195900D01*
X229400Y172000D02*
X276500D01*
Y165700D02*
Y195900D01*
X229400D02*
X276500D01*
X229400Y165700D02*
Y195900D01*
Y165700D02*
X276500D01*
X240750Y187500D02*
Y195900D01*
X233250Y187500D02*
X240750D01*
X233250D02*
Y195900D01*
X101500Y137000D02*
Y158000D01*
X81500Y137000D02*
X101500D01*
X81500D02*
Y158000D01*
X94500D02*
X101500D01*
X81500D02*
X88500D01*
X148100Y139854D02*
X156900D01*
X148100Y159343D02*
X156900D01*
X148100Y139854D02*
Y147000D01*
Y152000D02*
Y159146D01*
X156900Y152000D02*
Y159146D01*
Y139854D02*
Y147000D01*
X136100Y139854D02*
X144900D01*
X136100Y159343D02*
X144900D01*
X136100Y139854D02*
Y147000D01*
Y152000D02*
Y159146D01*
X144900Y152000D02*
Y159146D01*
Y139854D02*
Y147000D01*
X117124Y187936D02*
X114500D01*
Y184000D01*
X117124D01*
X114500Y185968D02*
X115812D01*
X118436Y184000D02*
Y187936D01*
X121060Y184000D01*
Y187936D01*
X69000Y184500D02*
Y188436D01*
X70968D01*
X71624Y187780D01*
Y186468D01*
X70968Y185812D01*
X69000D01*
X72936Y188436D02*
Y184500D01*
X74248Y185812D01*
X75560Y184500D01*
Y188436D01*
X76872Y184500D02*
Y188436D01*
X78183Y187124D01*
X79495Y188436D01*
Y184500D01*
X295000Y121723D02*
Y118574D01*
X296574Y117000D01*
X298149Y118574D01*
Y121723D01*
X302084D02*
X300510D01*
X299723Y120936D01*
Y117787D01*
X300510Y117000D01*
X302084D01*
X302871Y117787D01*
Y120936D01*
X302084Y121723D01*
X304446D02*
Y117787D01*
X305233Y117000D01*
X306807D01*
X307594Y117787D01*
Y121723D01*
X309169D02*
X312317D01*
X310743D01*
Y117000D01*
X5861Y89075D02*
Y93798D01*
X3500Y91436D01*
X6649D01*
X8223Y93010D02*
X9010Y93798D01*
X10584D01*
X11372Y93010D01*
Y92223D01*
X10584Y91436D01*
X11372Y90649D01*
Y89862D01*
X10584Y89075D01*
X9010D01*
X8223Y89862D01*
Y90649D01*
X9010Y91436D01*
X8223Y92223D01*
Y93010D01*
X9010Y91436D02*
X10584D01*
X12946Y93798D02*
Y90649D01*
X14520Y89075D01*
X16094Y90649D01*
Y93798D01*
X71700Y165436D02*
Y162156D01*
X72356Y161500D01*
X73668D01*
X74324Y162156D01*
Y165436D01*
X78260Y161500D02*
X75636D01*
X78260Y164124D01*
Y164780D01*
X77604Y165436D01*
X76292D01*
X75636Y164780D01*
X207800Y157136D02*
Y153856D01*
X208456Y153200D01*
X209768D01*
X210424Y153856D01*
Y157136D01*
X211736Y153200D02*
X213048D01*
X212392D01*
Y157136D01*
X211736Y156480D01*
X163000Y128500D02*
Y132436D01*
X164968D01*
X165624Y131780D01*
Y130468D01*
X164968Y129812D01*
X163000D01*
X164312D02*
X165624Y128500D01*
X166936Y132436D02*
X169560D01*
Y131780D01*
X166936Y129156D01*
Y128500D01*
X129000Y117000D02*
Y120936D01*
X130968D01*
X131624Y120280D01*
Y118968D01*
X130968Y118312D01*
X129000D01*
X130312D02*
X131624Y117000D01*
X135560Y120936D02*
X134248Y120280D01*
X132936Y118968D01*
Y117656D01*
X133592Y117000D01*
X134904D01*
X135560Y117656D01*
Y118312D01*
X134904Y118968D01*
X132936D01*
X248056Y129143D02*
Y133079D01*
X250024D01*
X250680Y132423D01*
Y131111D01*
X250024Y130455D01*
X248056D01*
X249368D02*
X250680Y129143D01*
X254616Y133079D02*
X251992D01*
Y131111D01*
X253304Y131767D01*
X253960D01*
X254616Y131111D01*
Y129799D01*
X253960Y129143D01*
X252648D01*
X251992Y129799D01*
X246600Y147500D02*
Y151436D01*
X248568D01*
X249224Y150780D01*
Y149468D01*
X248568Y148812D01*
X246600D01*
X247912D02*
X249224Y147500D01*
X252504D02*
Y151436D01*
X250536Y149468D01*
X253160D01*
X263350Y129100D02*
Y133036D01*
X265318D01*
X265974Y132380D01*
Y131068D01*
X265318Y130412D01*
X263350D01*
X264662D02*
X265974Y129100D01*
X267286Y132380D02*
X267942Y133036D01*
X269254D01*
X269910Y132380D01*
Y131724D01*
X269254Y131068D01*
X268598D01*
X269254D01*
X269910Y130412D01*
Y129756D01*
X269254Y129100D01*
X267942D01*
X267286Y129756D01*
X229000Y156000D02*
Y159936D01*
X230968D01*
X231624Y159280D01*
Y157968D01*
X230968Y157312D01*
X229000D01*
X230312D02*
X231624Y156000D01*
X235560D02*
X232936D01*
X235560Y158624D01*
Y159280D01*
X234904Y159936D01*
X233592D01*
X232936Y159280D01*
X278600Y129150D02*
Y133086D01*
X280568D01*
X281224Y132430D01*
Y131118D01*
X280568Y130462D01*
X278600D01*
X279912D02*
X281224Y129150D01*
X282536D02*
X283848D01*
X283192D01*
Y133086D01*
X282536Y132430D01*
X163200Y110000D02*
Y113936D01*
X164512Y112624D01*
X165824Y113936D01*
Y110000D01*
X169760D02*
X167136D01*
X169760Y112624D01*
Y113280D01*
X169104Y113936D01*
X167792D01*
X167136Y113280D01*
X105000Y110100D02*
Y114036D01*
X106312Y112724D01*
X107624Y114036D01*
Y110100D01*
X108936D02*
X110248D01*
X109592D01*
Y114036D01*
X108936Y113380D01*
X186900Y111036D02*
Y107100D01*
X189524D01*
X190836D02*
X192148D01*
X191492D01*
Y111036D01*
X190836Y110380D01*
X97124Y7780D02*
X96468Y8436D01*
X95156D01*
X94500Y7780D01*
Y5156D01*
X95156Y4500D01*
X96468D01*
X97124Y5156D01*
Y6468D01*
X95812D01*
X98436Y4500D02*
Y8436D01*
X101060Y4500D01*
Y8436D01*
X102372D02*
Y4500D01*
X104339D01*
X104995Y5156D01*
Y7780D01*
X104339Y8436D01*
X102372D01*
X184624Y7280D02*
X183968Y7936D01*
X182656D01*
X182000Y7280D01*
Y4656D01*
X182656Y4000D01*
X183968D01*
X184624Y4656D01*
Y5968D01*
X183312D01*
X185936Y4000D02*
Y7936D01*
X188560Y4000D01*
Y7936D01*
X189872D02*
Y4000D01*
X191839D01*
X192495Y4656D01*
Y7280D01*
X191839Y7936D01*
X189872D01*
X232524Y203336D02*
X231212D01*
X231868D01*
Y200056D01*
X231212Y199400D01*
X230556D01*
X229900Y200056D01*
X233836Y199400D02*
X235148D01*
X234492D01*
Y203336D01*
X233836Y202680D01*
X167500Y123436D02*
Y119500D01*
X169468D01*
X170124Y120156D01*
Y122780D01*
X169468Y123436D01*
X167500D01*
X171436Y122780D02*
X172092Y123436D01*
X173404D01*
X174060Y122780D01*
Y122124D01*
X173404Y121468D01*
X172748D01*
X173404D01*
X174060Y120812D01*
Y120156D01*
X173404Y119500D01*
X172092D01*
X171436Y120156D01*
X134000Y128936D02*
Y125000D01*
X135968D01*
X136624Y125656D01*
Y128280D01*
X135968Y128936D01*
X134000D01*
X140560Y125000D02*
X137936D01*
X140560Y127624D01*
Y128280D01*
X139904Y128936D01*
X138592D01*
X137936Y128280D01*
X99500Y174936D02*
Y171000D01*
X101468D01*
X102124Y171656D01*
Y174280D01*
X101468Y174936D01*
X99500D01*
X103436Y171000D02*
X104748D01*
X104092D01*
Y174936D01*
X103436Y174280D01*
X153124Y177780D02*
X152468Y178436D01*
X151156D01*
X150500Y177780D01*
Y175156D01*
X151156Y174500D01*
X152468D01*
X153124Y175156D01*
X154436Y174500D02*
X155748D01*
X155092D01*
Y178436D01*
X154436Y177780D01*
X157715D02*
X158371Y178436D01*
X159683D01*
X160339Y177780D01*
Y175156D01*
X159683Y174500D01*
X158371D01*
X157715Y175156D01*
Y177780D01*
X151180Y166115D02*
X150524Y166771D01*
X149212D01*
X148556Y166115D01*
Y163491D01*
X149212Y162835D01*
X150524D01*
X151180Y163491D01*
X152492D02*
X153148Y162835D01*
X154460D01*
X155116Y163491D01*
Y166115D01*
X154460Y166771D01*
X153148D01*
X152492Y166115D01*
Y165459D01*
X153148Y164803D01*
X155116D01*
X139180Y166115D02*
X138524Y166771D01*
X137212D01*
X136556Y166115D01*
Y163491D01*
X137212Y162835D01*
X138524D01*
X139180Y163491D01*
X140492Y166115D02*
X141148Y166771D01*
X142460D01*
X143116Y166115D01*
Y165459D01*
X142460Y164803D01*
X143116Y164147D01*
Y163491D01*
X142460Y162835D01*
X141148D01*
X140492Y163491D01*
Y164147D01*
X141148Y164803D01*
X140492Y165459D01*
Y166115D01*
X141148Y164803D02*
X142460D01*
X234124Y122280D02*
X233468Y122936D01*
X232156D01*
X231500Y122280D01*
Y119656D01*
X232156Y119000D01*
X233468D01*
X234124Y119656D01*
X235436Y122936D02*
X238060D01*
Y122280D01*
X235436Y119656D01*
Y119000D01*
X239124Y20780D02*
X238468Y21436D01*
X237156D01*
X236500Y20780D01*
Y18156D01*
X237156Y17500D01*
X238468D01*
X239124Y18156D01*
X243060Y21436D02*
X241748Y20780D01*
X240436Y19468D01*
Y18156D01*
X241092Y17500D01*
X242404D01*
X243060Y18156D01*
Y18812D01*
X242404Y19468D01*
X240436D01*
X229124Y13280D02*
X228468Y13936D01*
X227156D01*
X226500Y13280D01*
Y10656D01*
X227156Y10000D01*
X228468D01*
X229124Y10656D01*
X233060Y13936D02*
X230436D01*
Y11968D01*
X231748Y12624D01*
X232404D01*
X233060Y11968D01*
Y10656D01*
X232404Y10000D01*
X231092D01*
X230436Y10656D01*
X249824Y88480D02*
X249168Y89136D01*
X247856D01*
X247200Y88480D01*
Y85856D01*
X247856Y85200D01*
X249168D01*
X249824Y85856D01*
X253104Y85200D02*
Y89136D01*
X251136Y87168D01*
X253760D01*
X135624Y79580D02*
X134968Y80236D01*
X133656D01*
X133000Y79580D01*
Y76956D01*
X133656Y76300D01*
X134968D01*
X135624Y76956D01*
X136936Y79580D02*
X137592Y80236D01*
X138904D01*
X139560Y79580D01*
Y78924D01*
X138904Y78268D01*
X138248D01*
X138904D01*
X139560Y77612D01*
Y76956D01*
X138904Y76300D01*
X137592D01*
X136936Y76956D01*
X123624Y81532D02*
X122968Y82188D01*
X121656D01*
X121000Y81532D01*
Y78908D01*
X121656Y78252D01*
X122968D01*
X123624Y78908D01*
X127560Y78252D02*
X124936D01*
X127560Y80876D01*
Y81532D01*
X126904Y82188D01*
X125592D01*
X124936Y81532D01*
X37624Y35780D02*
X36968Y36436D01*
X35656D01*
X35000Y35780D01*
Y33156D01*
X35656Y32500D01*
X36968D01*
X37624Y33156D01*
X38936Y32500D02*
X40248D01*
X39592D01*
Y36436D01*
X38936Y35780D01*
X35500Y142032D02*
X39436D01*
X37468Y144000D01*
Y141376D01*
X38780Y140064D02*
X39436Y139408D01*
Y138096D01*
X38780Y137440D01*
X38124D01*
X37468Y138096D01*
X36812Y137440D01*
X36156D01*
X35500Y138096D01*
Y139408D01*
X36156Y140064D01*
X36812D01*
X37468Y139408D01*
X38124Y140064D01*
X38780D01*
X37468Y139408D02*
Y138096D01*
Y136128D02*
Y133505D01*
X35500Y132193D02*
Y130881D01*
Y131537D01*
X39436D01*
X38780Y132193D01*
X35500Y126289D02*
Y128913D01*
X38124Y126289D01*
X38780D01*
X39436Y126945D01*
Y128257D01*
X38780Y128913D01*
X37468Y124977D02*
Y123665D01*
X34844D01*
X36812Y124977D02*
Y123665D01*
X36156Y119730D02*
X35500Y120386D01*
Y121697D01*
X36156Y122353D01*
X36812D01*
X38124Y121042D01*
X38780D02*
X39436D01*
X36812Y115794D02*
Y118418D01*
X34844D01*
X36812Y117106D02*
X34844D01*
X38780Y115794D02*
X39436Y115138D01*
Y113826D01*
X38780Y113170D01*
X38124D01*
X36812Y114482D01*
X36156D02*
X35500D01*
X37468Y111858D02*
Y110546D01*
X36812Y111858D02*
Y110546D01*
X39436D02*
X34844D01*
X36812Y109234D02*
X37468D01*
X38124Y108578D01*
Y107922D01*
X37468Y107266D01*
X34844D01*
X36812D02*
X38124Y105955D01*
X36812Y103331D02*
Y104643D01*
X39436D01*
X37468Y103331D02*
Y104643D01*
X36812Y103331D02*
Y102019D01*
X39436D02*
X34844D01*
D11*
X30469Y50756D02*
G03*
X82231Y50756I25881J20705D01*
G01*
D12*
X87846Y71461D02*
G03*
X87846Y71461I-31496J0D01*
G01*
X287922Y60977D02*
G03*
X287922Y60977I-20472J0D01*
G01*
X94465Y41465D02*
X127535D01*
X94465Y67055D02*
X101945Y74535D01*
X94465Y41465D02*
Y67055D01*
X127535Y41465D02*
Y67055D01*
X120055Y74535D02*
X127535Y67055D01*
X101945Y74535D02*
X120055D01*
X25100Y68861D02*
X53750Y40211D01*
X30500Y71461D02*
X61500Y40461D01*
X38500Y71461D02*
X67500Y42461D01*
X46500Y71461D02*
X72500Y45461D01*
X54500Y71461D02*
X77750Y48211D01*
X62500Y71461D02*
X81500Y52461D01*
X70500Y71461D02*
X84500Y57461D01*
X78500Y71461D02*
X86500Y63461D01*
X25000Y71461D02*
X87700D01*
X255493Y60977D02*
X255521D01*
X247493Y60977D02*
X247521D01*
X247041D02*
X287470D01*
X251477D02*
X251500D01*
X255477D02*
X255493Y60977D01*
X259477D02*
X259500Y60977D01*
X271477D02*
X271500D01*
X283477D02*
X283500D01*
X287477Y60977D02*
X287922Y60977D01*
X277500Y43000D02*
X285000Y50500D01*
X253500Y47000D02*
X267500Y61000D01*
X259477Y60977D02*
X259477D01*
X249500Y51000D02*
X259477Y60977D01*
X247500Y57000D02*
X251477Y60977D01*
X275477D02*
X275500D01*
X257500Y43000D02*
X275477Y60977D01*
X263500Y41000D02*
X283477Y60977D01*
X271500Y41000D02*
X287500Y57000D01*
D13*
X157902Y55000D02*
G03*
X157902Y55000I-12402J0D01*
G01*
X82000Y181500D02*
Y191500D01*
X112000D01*
Y181500D02*
Y191500D01*
X82000Y181500D02*
X112000D01*
X172000Y21500D02*
X202000D01*
X172000Y11500D02*
Y21500D01*
Y11500D02*
X202000D01*
Y21500D01*
X308150Y83425D02*
Y113425D01*
X298150D02*
X308150D01*
X298150Y83425D02*
Y113425D01*
Y83425D02*
X308150D01*
X14500Y55500D02*
Y85500D01*
X4500D02*
X14500D01*
X4500Y55500D02*
Y85500D01*
Y55500D02*
X14500D01*
X228500Y129657D02*
Y149343D01*
X217500Y129657D02*
Y149343D01*
X228500D01*
X135500Y193500D02*
X165500D01*
X135500Y183500D02*
Y193500D01*
Y183500D02*
X165500D01*
Y193500D01*
X86000Y21500D02*
X116000D01*
X86000Y11500D02*
Y21500D01*
Y11500D02*
X116000D01*
Y21500D01*
D14*
X251338Y46500D02*
G03*
X283000Y46500I15831J13896D01*
G01*
D15*
X233608Y127689D02*
G03*
X233608Y127689I-608J0D01*
G01*
D16*
X223000Y131658D02*
G03*
X221000Y129657I0J-2000D01*
G01*
X225000Y129657D02*
G03*
X223000Y131658I-2000J0D01*
G01*
X226059Y152500D02*
Y163500D01*
X220941D02*
X226059D01*
X220941Y152500D02*
Y163500D01*
Y152500D02*
X226059D01*
X217000Y118441D02*
Y123559D01*
X229000Y118441D02*
Y123559D01*
X224500Y118441D02*
X229000D01*
X224500Y123559D02*
X229000D01*
X217000Y118441D02*
X221500D01*
X217000Y123559D02*
X221500D01*
X115500Y121059D02*
X126500D01*
X115500Y115941D02*
Y121059D01*
Y115941D02*
X126500D01*
Y121059D01*
X149500Y133059D02*
X160500D01*
X149500Y127941D02*
Y133059D01*
Y127941D02*
X160500D01*
Y133059D01*
X135500Y173941D02*
Y179059D01*
X147500Y173941D02*
Y179059D01*
X143000Y173941D02*
X147500D01*
X143000Y179059D02*
X147500D01*
X135500Y173941D02*
X140000D01*
X135500Y179059D02*
X140000D01*
X242559Y32000D02*
Y36500D01*
X237441Y32000D02*
Y36500D01*
X242559Y24500D02*
Y29000D01*
X237441Y24500D02*
Y29000D01*
Y24500D02*
X242559D01*
X237441Y36500D02*
X242559D01*
X217500Y129657D02*
X221000D01*
X225000D02*
X228500D01*
X246000Y138941D02*
Y144059D01*
X257000D01*
Y138941D02*
Y144059D01*
X246000Y138941D02*
X257000D01*
D17*
X223000Y120100D02*
Y121900D01*
Y121000D02*
X223300D01*
X222700D02*
X223000D01*
X141500Y175600D02*
Y177400D01*
Y176500D02*
X141800D01*
X141200D02*
X141500D01*
X229500Y25000D02*
Y26500D01*
Y27500D02*
Y29000D01*
X227000Y27500D02*
X232000D01*
X227000Y26500D02*
X232000D01*
X240000Y30500D02*
Y30800D01*
Y30200D02*
Y30500D01*
X239100D02*
X240900D01*
X152500Y147500D02*
Y149000D01*
Y150000D02*
Y151500D01*
X150000Y150000D02*
X155000D01*
X150000Y149000D02*
X155000D01*
X140500Y147500D02*
Y149000D01*
Y150000D02*
Y151500D01*
X138000Y150000D02*
X143000D01*
X138000Y149000D02*
X143000D01*
M02*
