G04*
G04 #@! TF.GenerationSoftware,Altium Limited,Altium Designer,20.1.10 (176)*
G04*
G04 Layer_Physical_Order=1*
G04 Layer_Color=255*
%FSLAX25Y25*%
%MOIN*%
G70*
G04*
G04 #@! TF.SameCoordinates,0441287F-5BD0-46D5-AAFD-36AB4F102E54*
G04*
G04*
G04 #@! TF.FilePolarity,Positive*
G04*
G01*
G75*
%ADD10C,0.01000*%
%ADD17C,0.00600*%
%ADD18R,0.03000X0.03000*%
%ADD19R,0.03000X0.03000*%
G04:AMPARAMS|DCode=20|XSize=55mil|YSize=50mil|CornerRadius=0mil|HoleSize=0mil|Usage=FLASHONLY|Rotation=180.000|XOffset=0mil|YOffset=0mil|HoleType=Round|Shape=Octagon|*
%AMOCTAGOND20*
4,1,8,-0.02750,0.01250,-0.02750,-0.01250,-0.01500,-0.02500,0.01500,-0.02500,0.02750,-0.01250,0.02750,0.01250,0.01500,0.02500,-0.01500,0.02500,-0.02750,0.01250,0.0*
%
%ADD20OCTAGOND20*%

%ADD21R,0.05500X0.05000*%
%ADD22R,0.06200X0.05500*%
%ADD23O,0.05118X0.11811*%
%ADD24R,0.05118X0.11811*%
%ADD25R,0.06299X0.06000*%
%ADD26O,0.03937X0.10630*%
%ADD27R,0.03937X0.10630*%
%ADD28R,0.08268X0.02362*%
%ADD29O,0.08268X0.02362*%
%ADD30O,0.08800X0.02400*%
%ADD58C,0.10000*%
%ADD59C,0.03000*%
%ADD60C,0.04000*%
%ADD61C,0.02000*%
%ADD62C,0.06693*%
%ADD63R,0.06693X0.06693*%
%ADD64O,0.11811X0.08661*%
%ADD65O,0.08661X0.11811*%
%ADD66R,0.09843X0.09843*%
%ADD67C,0.09843*%
%ADD68R,0.06693X0.06693*%
%ADD69C,0.20000*%
%ADD70C,0.07874*%
%ADD71R,0.07874X0.07874*%
%ADD72C,0.08661*%
%ADD73C,0.07480*%
%ADD74R,0.07480X0.07480*%
%ADD75R,0.07874X0.07874*%
%ADD76C,0.03000*%
G36*
X276500Y165500D02*
X270500Y159500D01*
X222000D01*
Y188500D01*
X228821Y195321D01*
X276500Y195321D01*
Y165500D01*
D02*
G37*
G36*
X313431Y1529D02*
X1529D01*
Y54480D01*
X14500D01*
X14890Y54558D01*
X15221Y54779D01*
X26221Y65779D01*
X26442Y66110D01*
X26520Y66500D01*
Y70480D01*
X87078D01*
X92980Y64578D01*
Y58500D01*
X93058Y58110D01*
X93279Y57779D01*
X93610Y57558D01*
X94000Y57480D01*
X154500D01*
X154890Y57558D01*
X155221Y57779D01*
X159221Y61779D01*
X159442Y62110D01*
X159520Y62500D01*
X159442Y62890D01*
X159221Y63221D01*
X143221Y79221D01*
X143137Y79277D01*
X143066Y79348D01*
X129520Y88379D01*
Y91369D01*
X129990Y91537D01*
X130237Y91237D01*
X131150Y90487D01*
X132193Y89930D01*
X133324Y89587D01*
X134500Y89471D01*
X144753D01*
X151987Y82237D01*
X152901Y81487D01*
X153943Y80930D01*
X155074Y80587D01*
X156250Y80471D01*
X183500D01*
X184676Y80587D01*
X185807Y80930D01*
X188000Y78737D01*
Y50000D01*
X203668D01*
X204480Y49187D01*
Y49187D01*
X204723Y48863D01*
X204794Y48792D01*
X204850Y48708D01*
X211029Y42529D01*
X222743Y30815D01*
X225208Y28350D01*
X225291Y28294D01*
X225362Y28223D01*
X225441Y28171D01*
X225441Y28171D01*
X225534Y28132D01*
X225539Y28129D01*
X225545Y28128D01*
X225705Y28061D01*
X225710Y28058D01*
X225716Y28057D01*
X225809Y28019D01*
X225902Y28000D01*
X226002D01*
X226100Y27980D01*
X233400D01*
X233498Y28000D01*
X233598Y28000D01*
X233691Y28019D01*
X233784Y28057D01*
X233790Y28058D01*
X233795Y28061D01*
X233956Y28128D01*
X233961Y28129D01*
X233966Y28132D01*
X234059Y28171D01*
X234137Y28223D01*
X234208Y28294D01*
X234292Y28350D01*
X236422Y30480D01*
X236901D01*
X237000Y30500D01*
X243900D01*
X243998Y30520D01*
X244098D01*
X244182Y30536D01*
X244275Y30575D01*
X244290Y30578D01*
X244302Y30586D01*
X244550Y30689D01*
X244831Y30970D01*
X244934Y31217D01*
X244942Y31230D01*
X244945Y31245D01*
X244983Y31337D01*
X245000Y31421D01*
Y31521D01*
X245020Y31620D01*
Y36900D01*
X245000Y36998D01*
X245000Y37099D01*
X244982Y37191D01*
X244943Y37284D01*
X244942Y37290D01*
X244939Y37295D01*
X244872Y37455D01*
X244871Y37461D01*
X244868Y37466D01*
X244829Y37559D01*
X244777Y37637D01*
X244706Y37708D01*
X244650Y37792D01*
X231020Y51422D01*
X231283Y51841D01*
X244922Y65480D01*
X293000D01*
X293390Y65558D01*
X293721Y65779D01*
X311221Y83279D01*
X311442Y83610D01*
X311520Y84000D01*
Y115000D01*
X311442Y115390D01*
X311221Y115721D01*
X310890Y115942D01*
X310500Y116020D01*
X287000D01*
Y116900D01*
X286650Y117250D01*
Y125250D01*
X278350D01*
Y122549D01*
X276500D01*
X275524Y122355D01*
X274698Y121802D01*
X271900Y119004D01*
X271400Y119211D01*
Y125250D01*
X263100D01*
Y123799D01*
X256150D01*
Y125250D01*
X254549D01*
Y131944D01*
X256302Y133698D01*
X256855Y134525D01*
X257049Y135500D01*
Y141500D01*
X257000Y141746D01*
Y144000D01*
X254746D01*
X254500Y144049D01*
X254254Y144000D01*
X252000D01*
Y141746D01*
X251951Y141500D01*
Y136556D01*
X250198Y134802D01*
X249645Y133976D01*
X249451Y133000D01*
Y125250D01*
X247850D01*
Y117250D01*
X256150D01*
X256500Y116895D01*
Y102020D01*
X256453Y101520D01*
X242500D01*
X242110Y101442D01*
X241779Y101221D01*
X240506Y99948D01*
X218263D01*
X217350Y100698D01*
X216307Y101255D01*
X215176Y101598D01*
X214000Y101714D01*
X192685D01*
X191509Y101598D01*
X190378Y101255D01*
X189336Y100698D01*
X188422Y99948D01*
X181003Y92529D01*
X173937D01*
Y101437D01*
X168342D01*
X164276Y105503D01*
Y118000D01*
X165000D01*
Y125000D01*
X163526D01*
Y128000D01*
X163423Y128783D01*
X163120Y129513D01*
X162640Y130140D01*
X162640Y130140D01*
X160500Y132279D01*
Y133000D01*
X159670D01*
X159513Y133121D01*
X158783Y133423D01*
Y140717D01*
X158000Y141500D01*
X156600Y141531D01*
Y147500D01*
X158500D01*
Y151500D01*
X158000Y152000D01*
X156600Y152017D01*
Y158959D01*
X148400D01*
Y157758D01*
X144600D01*
Y158959D01*
X136400D01*
Y157653D01*
X112465D01*
X112258Y158153D01*
X115605Y161500D01*
X117750D01*
X119500Y163250D01*
Y166750D01*
X117750Y168500D01*
X98500D01*
Y164605D01*
X97159Y163264D01*
X96698Y163456D01*
Y166698D01*
X98500Y168500D01*
X95905Y171095D01*
X95132D01*
X94940Y171557D01*
X105713Y182329D01*
X105865Y182265D01*
X107000Y182116D01*
X108135Y182265D01*
X109192Y182703D01*
X110100Y183400D01*
X110797Y184308D01*
X111235Y185365D01*
X111384Y186500D01*
X111235Y187635D01*
X110797Y188692D01*
X110100Y189600D01*
X109192Y190297D01*
X108135Y190735D01*
X107000Y190884D01*
X105865Y190735D01*
X104808Y190297D01*
X103900Y189600D01*
X100100D01*
X99192Y190297D01*
X98135Y190735D01*
X97000Y190884D01*
X95865Y190735D01*
X94808Y190297D01*
X93900Y189600D01*
X92593D01*
X91347Y190847D01*
X82653D01*
Y182153D01*
X84961D01*
Y159145D01*
X81297Y155481D01*
X80819Y155626D01*
X80772Y155858D01*
X80520Y156237D01*
Y156500D01*
X80481Y156693D01*
X80445Y156884D01*
X80443Y156887D01*
X80442Y156890D01*
X80333Y157054D01*
X80226Y157216D01*
X80223Y157218D01*
X80221Y157221D01*
X80058Y157330D01*
X79896Y157439D01*
X79893Y157440D01*
X79890Y157442D01*
X79698Y157480D01*
X79506Y157520D01*
X1891Y158017D01*
X1877Y158029D01*
X1529Y158424D01*
Y195321D01*
X226726Y195321D01*
X226917Y194859D01*
X221279Y189221D01*
X221058Y188890D01*
X220980Y188500D01*
Y159500D01*
X221000Y159402D01*
Y158500D01*
X221901D01*
X222000Y158480D01*
X270500D01*
X270890Y158558D01*
X271221Y158779D01*
X277221Y164779D01*
X277442Y165110D01*
X277520Y165500D01*
Y195321D01*
X313431D01*
X313431Y1529D01*
D02*
G37*
G36*
X95951Y146549D02*
Y133000D01*
X96145Y132025D01*
X96698Y131198D01*
X102698Y125198D01*
X103524Y124645D01*
X104500Y124451D01*
X110654D01*
X112580Y122525D01*
Y121371D01*
X112774Y120396D01*
X113326Y119569D01*
X115500Y117395D01*
Y116000D01*
X117754D01*
X118000Y115951D01*
X118246Y116000D01*
X119068D01*
X119259Y115538D01*
X112360Y108640D01*
X111880Y108013D01*
X111577Y107283D01*
X111474Y106500D01*
Y100437D01*
X109563D01*
Y90563D01*
X118980D01*
Y89422D01*
X113024Y83466D01*
X83486Y98896D01*
X32000Y127888D01*
X31942Y127908D01*
X31890Y127942D01*
X31754Y127969D01*
X31622Y128012D01*
X31561Y128007D01*
X31500Y128020D01*
X1529D01*
Y140480D01*
X60000D01*
X60390Y140558D01*
X60721Y140779D01*
X60942Y141110D01*
X61020Y141500D01*
Y142982D01*
X61183Y143414D01*
X61715D01*
Y143414D01*
X61715Y143414D01*
X70714D01*
X71442Y142928D01*
X72300Y142757D01*
X78700D01*
X79558Y142928D01*
X80286Y143414D01*
X80772Y144142D01*
X80784Y144200D01*
X83584Y147000D01*
X95500D01*
X95951Y146549D01*
D02*
G37*
G36*
X79500Y156500D02*
Y153684D01*
X79307Y153491D01*
X69000Y153000D01*
X60000Y144000D01*
Y141500D01*
X1529D01*
Y156645D01*
X1884Y156998D01*
X79500Y156500D01*
D02*
G37*
G36*
X310500Y84000D02*
X293000Y66500D01*
X244500D01*
X230000Y52000D01*
Y51000D01*
X230299Y50701D01*
X230299Y50701D01*
X243929Y37071D01*
X243982Y36992D01*
X244000Y36900D01*
Y31620D01*
X243983Y31536D01*
X243900Y31520D01*
X237000D01*
X236901Y31500D01*
X236000D01*
X233571Y29071D01*
X233492Y29019D01*
X233400Y29000D01*
X226100D01*
X226008Y29019D01*
X225929Y29071D01*
X223464Y31536D01*
X211750Y43250D01*
X205571Y49429D01*
X205519Y49508D01*
X205500Y49600D01*
Y52000D01*
Y63500D01*
X242500Y100500D01*
X279000Y100500D01*
X279000Y115000D01*
X310500D01*
Y84000D01*
D02*
G37*
G36*
X83000Y98000D02*
X113216Y82216D01*
X120000Y89000D01*
X120000Y99000D01*
X128000D01*
X128500Y98500D01*
Y95795D01*
X128471Y95500D01*
X128500Y95205D01*
Y87833D01*
X142500Y78500D01*
X158500Y62500D01*
X154500Y58500D01*
X94000D01*
Y65000D01*
X87500Y71500D01*
X25500D01*
Y66500D01*
X14500Y55500D01*
X1529D01*
Y127000D01*
X31500D01*
X83000Y98000D01*
D02*
G37*
%LPC*%
G36*
X138000Y179049D02*
X130500D01*
X129525Y178855D01*
X128698Y178302D01*
X128145Y177476D01*
X127951Y176500D01*
X128145Y175524D01*
X128698Y174698D01*
X129525Y174145D01*
X130500Y173951D01*
X138000D01*
X138246Y174000D01*
X140500D01*
Y176254D01*
X140549Y176500D01*
X140500Y176746D01*
Y179000D01*
X138246D01*
X138000Y179049D01*
D02*
G37*
G36*
X295276Y188199D02*
X293549Y188064D01*
X291866Y187659D01*
X290266Y186997D01*
X288790Y186092D01*
X287473Y184968D01*
X286349Y183651D01*
X285444Y182175D01*
X284782Y180575D01*
X284377Y178892D01*
X284242Y177165D01*
X284377Y175439D01*
X284782Y173756D01*
X285444Y172156D01*
X286349Y170680D01*
X287473Y169363D01*
X288790Y168239D01*
X290266Y167334D01*
X291866Y166671D01*
X293549Y166267D01*
X295276Y166131D01*
X297002Y166267D01*
X298685Y166671D01*
X300285Y167334D01*
X301761Y168239D01*
X303078Y169363D01*
X304202Y170680D01*
X305107Y172156D01*
X305770Y173756D01*
X306174Y175439D01*
X306310Y177165D01*
X306174Y178892D01*
X305770Y180575D01*
X305107Y182175D01*
X304202Y183651D01*
X303078Y184968D01*
X301761Y186092D01*
X300285Y186997D01*
X298685Y187659D01*
X297002Y188064D01*
X295276Y188199D01*
D02*
G37*
G36*
X19685Y188199D02*
X17959Y188064D01*
X16275Y187659D01*
X14676Y186997D01*
X13199Y186092D01*
X11883Y184968D01*
X10758Y183651D01*
X9854Y182175D01*
X9191Y180575D01*
X8787Y178892D01*
X8651Y177165D01*
X8787Y175439D01*
X9191Y173756D01*
X9854Y172156D01*
X10758Y170680D01*
X11883Y169363D01*
X13199Y168239D01*
X14676Y167334D01*
X16275Y166671D01*
X17959Y166267D01*
X19685Y166131D01*
X21411Y166267D01*
X23095Y166671D01*
X24694Y167334D01*
X26171Y168239D01*
X27487Y169363D01*
X28612Y170680D01*
X29516Y172156D01*
X30179Y173756D01*
X30583Y175439D01*
X30719Y177165D01*
X30583Y178892D01*
X30179Y180575D01*
X29516Y182175D01*
X28612Y183651D01*
X27487Y184968D01*
X26171Y186092D01*
X24694Y186997D01*
X23095Y187659D01*
X21411Y188064D01*
X19685Y188199D01*
D02*
G37*
G36*
X215126Y149224D02*
X209221D01*
X208369Y149055D01*
X207648Y148573D01*
X207166Y147851D01*
X206997Y147000D01*
X207166Y146149D01*
X207648Y145428D01*
X208369Y144946D01*
X209221Y144776D01*
X215126D01*
X215977Y144946D01*
X216699Y145428D01*
X217180Y146149D01*
X217350Y147000D01*
X217180Y147851D01*
X216699Y148573D01*
X215977Y149055D01*
X215126Y149224D01*
D02*
G37*
G36*
Y144224D02*
X209221D01*
X208369Y144054D01*
X207648Y143572D01*
X207166Y142851D01*
X206997Y142000D01*
X207166Y141149D01*
X207648Y140427D01*
X208369Y139945D01*
X209221Y139776D01*
X215126D01*
X215977Y139945D01*
X216699Y140427D01*
X217180Y141149D01*
X217350Y142000D01*
X217180Y142851D01*
X216699Y143572D01*
X215977Y144054D01*
X215126Y144224D01*
D02*
G37*
G36*
X223500Y157549D02*
X223254Y157500D01*
X221000D01*
Y155246D01*
X220951Y155000D01*
Y141000D01*
X221145Y140024D01*
X221698Y139198D01*
X225698Y135198D01*
X226524Y134645D01*
X227500Y134451D01*
X228305D01*
X228693Y134181D01*
Y129819D01*
X232591D01*
X232851Y129645D01*
X233827Y129451D01*
X234802Y129645D01*
X235062Y129819D01*
X238961D01*
Y134181D01*
X240000Y135221D01*
Y139451D01*
X246000D01*
Y139000D01*
X248254D01*
X248500Y138951D01*
X248746Y139000D01*
X251000D01*
Y141254D01*
X251049Y141500D01*
X251000Y141746D01*
Y144000D01*
X249507D01*
X248975Y144355D01*
X248000Y144549D01*
X231000D01*
X230873Y144524D01*
X230500Y144959D01*
Y147000D01*
X226049D01*
Y155000D01*
X226000Y155246D01*
Y157500D01*
X223746D01*
X223500Y157549D01*
D02*
G37*
G36*
X215126Y139224D02*
X209221D01*
X208369Y139055D01*
X207648Y138573D01*
X207166Y137851D01*
X206997Y137000D01*
X207166Y136149D01*
X207648Y135427D01*
X208214Y135049D01*
X208063Y134549D01*
X202500D01*
X201524Y134355D01*
X200698Y133802D01*
X200145Y132975D01*
X199951Y132000D01*
X200145Y131025D01*
X200698Y130198D01*
X201524Y129645D01*
X202500Y129451D01*
X213432D01*
X216951Y125932D01*
Y121000D01*
X217000Y120754D01*
Y118500D01*
X219254D01*
X219500Y118451D01*
X219746Y118500D01*
X222000D01*
Y120754D01*
X222049Y121000D01*
Y126988D01*
X221855Y127964D01*
X221302Y128791D01*
X217057Y133036D01*
X216699Y133572D01*
X215977Y134055D01*
X215886Y134073D01*
X215488Y134338D01*
X215474Y134446D01*
X215517Y134854D01*
X215977Y134945D01*
X216699Y135427D01*
X217180Y136149D01*
X217350Y137000D01*
X217180Y137851D01*
X216699Y138573D01*
X215977Y139055D01*
X215126Y139224D01*
D02*
G37*
G36*
X295276Y30719D02*
X293549Y30583D01*
X291866Y30179D01*
X290266Y29516D01*
X288790Y28612D01*
X287473Y27487D01*
X286349Y26171D01*
X285444Y24694D01*
X284782Y23095D01*
X284378Y21411D01*
X284242Y19685D01*
X284378Y17959D01*
X284782Y16275D01*
X285444Y14676D01*
X286349Y13199D01*
X287473Y11883D01*
X288790Y10758D01*
X290266Y9854D01*
X291866Y9191D01*
X293549Y8787D01*
X295276Y8651D01*
X297002Y8787D01*
X298685Y9191D01*
X300285Y9854D01*
X301761Y10758D01*
X303078Y11883D01*
X304202Y13199D01*
X305107Y14676D01*
X305770Y16275D01*
X306174Y17959D01*
X306310Y19685D01*
X306174Y21411D01*
X305770Y23095D01*
X305107Y24694D01*
X304202Y26171D01*
X303078Y27487D01*
X301761Y28612D01*
X300285Y29516D01*
X298685Y30179D01*
X297002Y30583D01*
X295276Y30719D01*
D02*
G37*
G36*
X19685D02*
X17959Y30583D01*
X16275Y30179D01*
X14676Y29516D01*
X13199Y28612D01*
X11883Y27487D01*
X10758Y26171D01*
X9854Y24694D01*
X9191Y23095D01*
X8787Y21411D01*
X8651Y19685D01*
X8787Y17959D01*
X9191Y16275D01*
X9854Y14676D01*
X10758Y13199D01*
X11883Y11883D01*
X13199Y10758D01*
X14676Y9854D01*
X16275Y9191D01*
X17959Y8787D01*
X19685Y8651D01*
X21411Y8787D01*
X23095Y9191D01*
X24694Y9854D01*
X26171Y10758D01*
X27487Y11883D01*
X28612Y13199D01*
X29516Y14676D01*
X30179Y16275D01*
X30583Y17959D01*
X30719Y19685D01*
X30583Y21411D01*
X30179Y23095D01*
X29516Y24694D01*
X28612Y26171D01*
X27487Y27487D01*
X26171Y28612D01*
X24694Y29516D01*
X23095Y30179D01*
X21411Y30583D01*
X19685Y30719D01*
D02*
G37*
G36*
X17075Y139877D02*
X13925D01*
X12534Y139693D01*
X11237Y139156D01*
X10123Y138302D01*
X9269Y137188D01*
X8732Y135892D01*
X8548Y134500D01*
X8732Y133108D01*
X9269Y131812D01*
X10123Y130698D01*
X11237Y129844D01*
X12534Y129306D01*
X13925Y129123D01*
X17075D01*
X18466Y129306D01*
X19763Y129844D01*
X20877Y130698D01*
X21731Y131812D01*
X22268Y133108D01*
X22452Y134500D01*
X22268Y135892D01*
X21731Y137188D01*
X20877Y138302D01*
X19763Y139156D01*
X18466Y139693D01*
X17075Y139877D01*
D02*
G37*
%LPD*%
D10*
X0Y0D02*
X314961D01*
X314961Y196850D02*
X314961Y0D01*
X0D02*
Y196850D01*
X314961Y196850D01*
X0Y-19500D02*
X6000Y-17500D01*
X0Y-19500D02*
X6000Y-21500D01*
X308961D02*
X314961Y-19500D01*
X308961Y-17500D02*
X314961Y-19500D01*
X0D02*
X140785D01*
X170976D02*
X314961D01*
X0Y-20500D02*
Y-1500D01*
X314961Y-20500D02*
Y-1500D01*
X-22000Y196850D02*
X-20000Y190850D01*
X-24000D02*
X-22000Y196850D01*
X-24000Y6000D02*
X-22000Y0D01*
X-20000Y6000D01*
X-22000Y111921D02*
Y196850D01*
Y0D02*
Y81730D01*
X-23000Y196850D02*
X-1500D01*
X-23000Y0D02*
X-1500D01*
D17*
X142385Y-18101D02*
X143384Y-17101D01*
X145384D01*
X146383Y-18101D01*
Y-19100D01*
X145384Y-20100D01*
X146383Y-21100D01*
Y-22099D01*
X145384Y-23099D01*
X143384D01*
X142385Y-22099D01*
Y-21100D01*
X143384Y-20100D01*
X142385Y-19100D01*
Y-18101D01*
X143384Y-20100D02*
X145384D01*
X148383Y-18101D02*
X149382Y-17101D01*
X151382D01*
X152382Y-18101D01*
Y-22099D01*
X151382Y-23099D01*
X149382D01*
X148383Y-22099D01*
Y-18101D01*
X154381Y-23099D02*
Y-22099D01*
X155380D01*
Y-23099D01*
X154381D01*
X159379Y-18101D02*
X160379Y-17101D01*
X162378D01*
X163378Y-18101D01*
Y-22099D01*
X162378Y-23099D01*
X160379D01*
X159379Y-22099D01*
Y-18101D01*
X165377D02*
X166377Y-17101D01*
X168376D01*
X169376Y-18101D01*
Y-22099D01*
X168376Y-23099D01*
X166377D01*
X165377Y-22099D01*
Y-18101D01*
X-24399Y87328D02*
Y83330D01*
X-21400D01*
X-22400Y85329D01*
Y86329D01*
X-21400Y87328D01*
X-19401D01*
X-18401Y86329D01*
Y84329D01*
X-19401Y83330D01*
X-23399Y89328D02*
X-24399Y90327D01*
Y92327D01*
X-23399Y93326D01*
X-19401D01*
X-18401Y92327D01*
Y90327D01*
X-19401Y89328D01*
X-23399D01*
X-18401Y95326D02*
X-19401D01*
Y96325D01*
X-18401D01*
Y95326D01*
X-23399Y100324D02*
X-24399Y101324D01*
Y103323D01*
X-23399Y104323D01*
X-19401D01*
X-18401Y103323D01*
Y101324D01*
X-19401Y100324D01*
X-23399D01*
Y106322D02*
X-24399Y107322D01*
Y109321D01*
X-23399Y110321D01*
X-19401D01*
X-18401Y109321D01*
Y107322D01*
X-19401Y106322D01*
X-23399D01*
D18*
X223500Y161000D02*
D03*
Y155000D02*
D03*
X240000Y27000D02*
D03*
Y34000D02*
D03*
D19*
X219500Y121000D02*
D03*
X226500D02*
D03*
X118000Y118500D02*
D03*
X124000D02*
D03*
X152000Y130500D02*
D03*
X158000D02*
D03*
X138000Y176500D02*
D03*
X145000D02*
D03*
X248500Y141500D02*
D03*
X254500D02*
D03*
D20*
X114250Y127000D02*
D03*
X147750Y121500D02*
D03*
X115750Y165000D02*
D03*
D21*
X127750Y127000D02*
D03*
X161250Y121500D02*
D03*
X102250Y165000D02*
D03*
D22*
X229500Y32709D02*
D03*
Y21488D02*
D03*
X152500Y155209D02*
D03*
Y143988D02*
D03*
X140500Y155209D02*
D03*
Y143988D02*
D03*
D23*
X111000Y42252D02*
D03*
D24*
Y73748D02*
D03*
D25*
X282500Y107750D02*
D03*
Y121250D02*
D03*
X267250Y107750D02*
D03*
Y121250D02*
D03*
X252000D02*
D03*
Y107750D02*
D03*
D26*
X145500Y42402D02*
D03*
D27*
Y67598D02*
D03*
D28*
X233827Y132000D02*
D03*
D29*
Y137000D02*
D03*
Y142000D02*
D03*
Y147000D02*
D03*
X212173Y132000D02*
D03*
Y137000D02*
D03*
Y142000D02*
D03*
Y147000D02*
D03*
D30*
X75500Y155000D02*
D03*
Y150000D02*
D03*
Y145000D02*
D03*
Y140000D02*
D03*
X107500D02*
D03*
Y145000D02*
D03*
Y150000D02*
D03*
Y155000D02*
D03*
D58*
X134500Y95500D02*
Y101500D01*
X192685Y95685D02*
X214000D01*
X183500Y86500D02*
X192685Y95685D01*
X169000Y86500D02*
X183500D01*
X134500Y95500D02*
X147250D01*
X156250Y86500D01*
X169000D01*
D59*
X152500Y138500D02*
Y143988D01*
X233827Y132000D02*
Y137000D01*
X109304Y155104D02*
X140396D01*
X109500Y157150D02*
Y159000D01*
Y155300D02*
Y157150D01*
X104500Y155104D02*
X107454D01*
X109500Y157150D01*
X109304Y155104D02*
X109500Y155300D01*
X115500Y165000D02*
X115750D01*
X109500Y159000D02*
X115500Y165000D01*
X233827Y142000D02*
X248000D01*
X231000D02*
X233827D01*
X248000D02*
X248500Y141500D01*
X254500Y135500D02*
Y141500D01*
X252000Y121250D02*
Y133000D01*
X254500Y135500D01*
X252000Y121250D02*
X267250D01*
Y107750D02*
X268750Y109250D01*
X272250D01*
X273500Y110500D01*
Y117000D01*
X276500Y120000D01*
X281250D01*
X282500Y121250D01*
X223500Y141000D02*
Y155000D01*
Y141000D02*
X227500Y137000D01*
X233827D01*
X212173Y132000D02*
X214488D01*
X219500Y126988D01*
Y121000D02*
Y126988D01*
X202500Y132000D02*
X212173D01*
X152000Y125871D02*
Y130500D01*
X147750Y121621D02*
X152000Y125871D01*
X147750Y121500D02*
Y121621D01*
X127500Y127000D02*
X127750D01*
X126500Y126000D02*
X127500Y127000D01*
X126500Y125750D02*
Y126000D01*
X124000Y123250D02*
X126500Y125750D01*
X124000Y118500D02*
Y123250D01*
X114250Y127000D02*
X115129Y126121D01*
Y121371D02*
Y126121D01*
Y121371D02*
X118000Y118500D01*
X104500Y144700D02*
X139788D01*
X140500Y143988D02*
X152500D01*
X139788Y144700D02*
X140500Y143988D01*
Y155209D02*
X152500D01*
X140396Y155104D02*
X140500Y155209D01*
X107500Y140000D02*
X126450D01*
X104500D02*
X107500D01*
X126450D02*
X135950Y130500D01*
X152000D01*
X107500Y150000D02*
X110500D01*
X100257D02*
X107500D01*
X104500Y127000D02*
X114250D01*
X98500Y133000D02*
X104500Y127000D01*
X98500Y133000D02*
Y148243D01*
X100257Y150000D01*
X130500Y176500D02*
X138000D01*
X98500Y157500D02*
Y161000D01*
X101500Y164500D02*
X102000D01*
X101000Y164000D02*
X101500Y164500D01*
X101000Y163500D02*
Y164000D01*
X98500Y161000D02*
X101000Y163500D01*
X102000Y164500D02*
X102250Y164750D01*
Y165000D01*
D60*
X161250Y104250D02*
Y121500D01*
Y104250D02*
X169000Y96500D01*
X158000Y130500D02*
X160500Y128000D01*
Y122000D02*
Y128000D01*
Y122000D02*
X161000Y121500D01*
X161250D01*
X124000Y116000D02*
Y118500D01*
X114500Y106500D02*
X124000Y116000D01*
X114500Y95500D02*
Y106500D01*
D61*
X92439Y171939D02*
X107000Y186500D01*
X92439Y158739D02*
Y171939D01*
X78700Y145000D02*
X92439Y158739D01*
X75500Y145000D02*
X78700D01*
X75500Y150000D02*
X78700D01*
X87000Y158300D01*
Y186500D01*
D62*
X107000D02*
D03*
X97000D02*
D03*
X187000Y16500D02*
D03*
X177000D02*
D03*
X303150Y98425D02*
D03*
Y108425D02*
D03*
X9500Y70500D02*
D03*
Y80500D02*
D03*
X150500Y188500D02*
D03*
X140500D02*
D03*
X101000Y16500D02*
D03*
X91000D02*
D03*
D63*
X87000Y186500D02*
D03*
X197000Y16500D02*
D03*
X160500Y188500D02*
D03*
X111000Y16500D02*
D03*
D64*
X15500Y134500D02*
D03*
Y119500D02*
D03*
Y149500D02*
D03*
D65*
X145000Y17000D02*
D03*
X130000D02*
D03*
X160000D02*
D03*
X252000Y180000D02*
D03*
X267000D02*
D03*
X237000D02*
D03*
D66*
X56500Y86421D02*
D03*
D67*
Y56500D02*
D03*
D68*
X303150Y88425D02*
D03*
X9500Y60500D02*
D03*
D69*
X19685Y19685D02*
D03*
X295276Y177165D02*
D03*
X19685Y177165D02*
D03*
X295276Y19685D02*
D03*
D70*
X124500Y95500D02*
D03*
X134500D02*
D03*
X169000Y86500D02*
D03*
Y76500D02*
D03*
D71*
X114500Y95500D02*
D03*
D72*
X214000Y95685D02*
D03*
Y56315D02*
D03*
D73*
X267500Y50000D02*
D03*
D74*
Y71000D02*
D03*
D75*
X169000Y96500D02*
D03*
D76*
X134500Y103500D02*
D03*
X152500Y138500D02*
D03*
X89500Y141000D02*
D03*
X86000Y117500D02*
D03*
X74000Y118000D02*
D03*
X67500Y117500D02*
D03*
X86500Y125500D02*
D03*
X75500Y126000D02*
D03*
X68000Y126500D02*
D03*
X146500Y181000D02*
D03*
X159500D02*
D03*
X153000D02*
D03*
X202500Y132000D02*
D03*
X130500Y176500D02*
D03*
X98500Y157500D02*
D03*
X47000Y149500D02*
D03*
X67000Y154500D02*
D03*
X55500Y147000D02*
D03*
X54500Y153000D02*
D03*
X60500Y153500D02*
D03*
M02*
