G04*
G04 #@! TF.GenerationSoftware,Altium Limited,Altium Designer,20.1.10 (176)*
G04*
G04 Layer_Color=16711935*
%FSLAX25Y25*%
%MOIN*%
G70*
G04*
G04 #@! TF.SameCoordinates,0441287F-5BD0-46D5-AAFD-36AB4F102E54*
G04*
G04*
G04 #@! TF.FilePolarity,Negative*
G04*
G01*
G75*
%ADD44C,0.07493*%
%ADD45R,0.07493X0.07493*%
%ADD46O,0.12611X0.09461*%
%ADD47O,0.09461X0.12611*%
%ADD48R,0.10642X0.10642*%
%ADD49C,0.10642*%
%ADD50R,0.07493X0.07493*%
%ADD51C,0.20800*%
%ADD52C,0.08674*%
%ADD53R,0.08674X0.08674*%
%ADD54C,0.09461*%
%ADD55C,0.08280*%
%ADD56R,0.08280X0.08280*%
%ADD57R,0.08674X0.08674*%
D44*
X107000Y186500D02*
D03*
X97000D02*
D03*
X187000Y16500D02*
D03*
X177000D02*
D03*
X303150Y98425D02*
D03*
Y108425D02*
D03*
X9500Y70500D02*
D03*
Y80500D02*
D03*
X150500Y188500D02*
D03*
X140500D02*
D03*
X101000Y16500D02*
D03*
X91000D02*
D03*
D45*
X87000Y186500D02*
D03*
X197000Y16500D02*
D03*
X160500Y188500D02*
D03*
X111000Y16500D02*
D03*
D46*
X15500Y134500D02*
D03*
Y119500D02*
D03*
Y149500D02*
D03*
D47*
X145000Y17000D02*
D03*
X130000D02*
D03*
X160000D02*
D03*
X252000Y180000D02*
D03*
X267000D02*
D03*
X237000D02*
D03*
D48*
X56500Y86421D02*
D03*
D49*
Y56500D02*
D03*
D50*
X303150Y88425D02*
D03*
X9500Y60500D02*
D03*
D51*
X19685Y19685D02*
D03*
X295276Y177165D02*
D03*
X19685Y177165D02*
D03*
X295276Y19685D02*
D03*
D52*
X124500Y95500D02*
D03*
X134500D02*
D03*
X169000Y86500D02*
D03*
Y76500D02*
D03*
D53*
X114500Y95500D02*
D03*
D54*
X214000Y95685D02*
D03*
Y56315D02*
D03*
D55*
X267500Y50000D02*
D03*
D56*
Y71000D02*
D03*
D57*
X169000Y96500D02*
D03*
M02*
